<svg xmlns="http://www.w3.org/2000/svg" width="96" height="96" viewBox="0 0 96 96" fill="none">
  <rect x="10" y="10" width="76" height="76" rx="24" fill="#F9F3E8"/>
  <path d="M34 10H62C75.255 10 86 20.745 86 34V62C86 75.255 75.255 86 62 86H34C20.745 86 10 75.255 10 62V34C10 20.745 20.745 10 34 10Z" fill="url(#paint0_linear)"/>
  <path d="M10 62L62 10H34C20.745 10 10 20.745 10 34V62Z" fill="url(#paint1_linear)"/>
  <path d="M34 86H62C75.255 86 86 75.255 86 62V34L34 86Z" fill="url(#paint2_linear)"/>
  <path d="M22 38V25C22 23.343 23.343 22 25 22H38" stroke="#FFFFFF" stroke-width="4" stroke-linecap="round"/>
  <path d="M74 58V71C74 72.657 72.657 74 71 74H58" stroke="#FFFFFF" stroke-width="4" stroke-linecap="round"/>
  <path d="M28 68L68 28" stroke="#FFFFFF" stroke-width="4" stroke-linecap="round" stroke-opacity="0.9"/>
  <path d="M59.5 43.5L62.2 50.8L69.5 53.5L62.2 56.2L59.5 63.5L56.8 56.2L49.5 53.5L56.8 50.8L59.5 43.5Z" fill="#FFF7E8"/>
  <path d="M36.5 29L38.1 33.4L42.5 35L38.1 36.6L36.5 41L34.9 36.6L30.5 35L34.9 33.4L36.5 29Z" fill="#D9E7FF"/>
  <rect x="10" y="10" width="76" height="76" rx="24" stroke="#EADFCF" stroke-width="2"/>
  <defs>
    <linearGradient id="paint0_linear" x1="18" y1="14" x2="82" y2="82" gradientUnits="userSpaceOnUse">
      <stop stop-color="#14306F"/>
      <stop offset="0.48" stop-color="#1E56B7"/>
      <stop offset="0.52" stop-color="#F8E8C9"/>
      <stop offset="1" stop-color="#E4B65D"/>
    </linearGradient>
    <linearGradient id="paint1_linear" x1="14" y1="14" x2="55" y2="55" gradientUnits="userSpaceOnUse">
      <stop stop-color="#172554"/>
      <stop offset="1" stop-color="#2563EB"/>
    </linearGradient>
    <linearGradient id="paint2_linear" x1="46" y1="56" x2="86" y2="86" gradientUnits="userSpaceOnUse">
      <stop stop-color="#FFF7E8"/>
      <stop offset="1" stop-color="#E7BC65"/>
    </linearGradient>
  </defs>
</svg>
